<svg width="180" height="32" viewBox="0 0 180 32" fill="none" xmlns="http://www.w3.org/2000/svg">
<path d="M23.32 2H8.76001C5.24196 2 2.39001 4.85195 2.39001 8.37V22.93C2.39001 26.4481 5.24196 29.3 8.76001 29.3H23.32C26.8381 29.3 29.69 26.4481 29.69 22.93V8.37C29.69 4.85195 26.8381 2 23.32 2Z" fill="white"/>
<path d="M23.32 2H8.76001C5.24196 2 2.39001 4.85195 2.39001 8.37V22.93C2.39001 26.4481 5.24196 29.3 8.76001 29.3H23.32C26.8381 29.3 29.69 26.4481 29.69 22.93V8.37C29.69 4.85195 26.8381 2 23.32 2Z" stroke="url(#paint0_linear_8549_11599)" stroke-width="0.78"/>
<path fill-rule="evenodd" clip-rule="evenodd" d="M18.1469 13.8959L23.8194 19.5684L21.8977 21.4901L16.0404 15.6327V12.1591L19.8284 8.37109L21.7501 10.2928L18.1469 13.8959ZM13.9332 17.4034L8.26068 11.7309L10.1823 9.80926L16.0398 15.6665V19.1402L12.2518 22.9282L10.3301 21.0065L13.9332 17.4034Z" fill="url(#paint1_radial_8549_11599)"/>
<text x="38" y="21" font-family="Arial, sans-serif" font-size="18" font-weight="600" fill="black">Termix DOCS</text>
<defs>
<linearGradient id="paint0_linear_8549_11599" x1="2.00001" y1="4.63633" x2="30.08" y2="26.6637" gradientUnits="userSpaceOnUse">
<stop stop-color="#AEF431"/>
<stop offset="1" stop-color="#32F5D4"/>
</linearGradient>
<radialGradient id="paint1_radial_8549_11599" cx="0" cy="0" r="1" gradientUnits="userSpaceOnUse" gradientTransform="translate(15.7803 15.6511) scale(15.08 8.94192)">
<stop stop-color="#AEF431"/>
<stop offset="1" stop-color="#32F5D4"/>
</radialGradient>
</defs>
</svg>
