<svg width="180" height="32" viewBox="0 0 180 32" fill="none" xmlns="http://www.w3.org/2000/svg">
<path d="M23.32 2H8.76001C5.24196 2 2.39001 4.85195 2.39001 8.37V22.93C2.39001 26.4481 5.24196 29.3 8.76001 29.3H23.32C26.8381 29.3 29.69 26.4481 29.69 22.93V8.37C29.69 4.85195 26.8381 2 23.32 2Z" fill="white"/>
<path d="M23.32 2H8.76001C5.24196 2 2.39001 4.85195 2.39001 8.37V22.93C2.39001 26.4481 5.24196 29.3 8.76001 29.3H23.32C26.8381 29.3 29.69 26.4481 29.69 22.93V8.37C29.69 4.85195 26.8381 2 23.32 2Z" stroke="url(#paint0_linear_8549_11599)" stroke-width="0.78"/>
<path fill-rule="evenodd" clip-rule="evenodd" d="M18.1469 13.8959L23.8194 19.5684L21.8977 21.4901L16.0404 15.6327V12.1591L19.8284 8.37109L21.7501 10.2928L18.1469 13.8959ZM13.9332 17.4034L8.26068 11.7309L10.1823 9.80926L16.0398 15.6665V19.1402L12.2518 22.9282L10.3301 21.0065L13.9332 17.4034Z" fill="url(#paint1_radial_8549_11599)"/>
<path d="M44.3457 22H41.6914L43.9414 11.2686H40.1621L40.6104 9.11523H50.7617L50.3135 11.2686H46.5869L44.3457 22ZM58.1445 18.1152H51.8164C51.8105 18.2148 51.8076 18.291 51.8076 18.3438C51.8076 18.9648 51.9834 19.4658 52.335 19.8467C52.6924 20.2275 53.126 20.418 53.6357 20.418C54.4736 20.418 55.127 19.9844 55.5957 19.1172L57.8545 19.4951C57.415 20.4033 56.8262 21.0859 56.0879 21.543C55.3555 21.9941 54.5322 22.2197 53.6182 22.2197C52.3643 22.2197 51.3447 21.8242 50.5596 21.0332C49.7744 20.2363 49.3818 19.1846 49.3818 17.8779C49.3818 16.6006 49.7363 15.4639 50.4453 14.4678C51.4121 13.1201 52.792 12.4463 54.585 12.4463C55.7275 12.4463 56.6357 12.8008 57.3096 13.5098C57.9834 14.2129 58.3203 15.2002 58.3203 16.4717C58.3203 17.0811 58.2617 17.6289 58.1445 18.1152ZM56.0176 16.5771C56.0234 16.4658 56.0264 16.3809 56.0264 16.3223C56.0264 15.6309 55.8711 15.1123 55.5605 14.7666C55.25 14.4209 54.834 14.248 54.3125 14.248C53.791 14.248 53.3223 14.4443 52.9062 14.8369C52.4961 15.2295 52.2178 15.8096 52.0713 16.5771H56.0176ZM60.8867 12.666H63.2422L62.8643 14.4766C63.7432 13.123 64.6953 12.4463 65.7207 12.4463C66.084 12.4463 66.4736 12.5371 66.8896 12.7188L65.9229 14.7842C65.6943 14.7021 65.4512 14.6611 65.1934 14.6611C64.7598 14.6611 64.3174 14.8252 63.8662 15.1533C63.4209 15.4814 63.0723 15.9209 62.8203 16.4717C62.5684 17.0166 62.3193 17.8838 62.0732 19.0732L61.458 22H58.9355L60.8867 12.666ZM67.9619 12.666H70.335L70.0977 13.7998C71.0234 12.8975 71.9961 12.4463 73.0156 12.4463C73.7188 12.4463 74.2607 12.5928 74.6416 12.8857C75.0225 13.1787 75.2656 13.583 75.3711 14.0986C75.6934 13.6299 76.1562 13.2373 76.7598 12.9209C77.3633 12.6045 77.9902 12.4463 78.6406 12.4463C79.3848 12.4463 79.9648 12.6455 80.3809 13.0439C80.7969 13.4424 81.0049 13.9697 81.0049 14.626C81.0049 14.9482 80.9229 15.5049 80.7588 16.2959L79.5635 22H77.041L78.2363 16.2959C78.3828 15.5811 78.4561 15.1768 78.4561 15.083C78.4561 14.8252 78.377 14.623 78.2188 14.4766C78.0664 14.3242 77.835 14.248 77.5244 14.248C76.8975 14.248 76.3379 14.5791 75.8457 15.2412C75.4883 15.7158 75.1836 16.5566 74.9316 17.7637L74.0439 22H71.5215L72.6992 16.3574C72.834 15.707 72.9014 15.2852 72.9014 15.0918C72.9014 14.8457 72.8164 14.6436 72.6465 14.4854C72.4824 14.3271 72.2539 14.248 71.9609 14.248C71.6855 14.248 71.4014 14.3301 71.1084 14.4941C70.8154 14.6582 70.5576 14.8838 70.335 15.1709C70.1182 15.458 69.9307 15.8271 69.7725 16.2783C69.7021 16.4893 69.5879 16.9668 69.4297 17.7109L68.5332 22H66.0107L67.9619 12.666ZM84.793 9.11523H87.3154L86.8408 11.4004H84.3184L84.793 9.11523ZM84.0547 12.666H86.5771L84.626 22H82.1035L84.0547 12.666ZM91.4111 19.3809L89.0908 22H85.9971L90.3125 17.2188L87.9395 12.666H90.6201L91.9824 15.3291L94.3467 12.666H97.4141L93.0811 17.5088L95.4365 22H92.7559L91.4111 19.3809ZM109.93 19.1523H104.823L103.276 22H100.552L107.838 9.11523H110.782L112.874 22H110.36L109.93 19.1523ZM109.604 17.0078L108.857 11.8223L105.746 17.0078H109.604ZM114.386 22L117.084 9.11523H119.729L117.04 22H114.386ZM124.924 17.8252L127.446 17.6934C127.481 18.4961 127.619 19.0381 127.859 19.3193C128.246 19.7764 128.961 20.0049 130.004 20.0049C130.871 20.0049 131.498 19.8496 131.885 19.5391C132.271 19.2285 132.465 18.8535 132.465 18.4141C132.465 18.0332 132.307 17.7109 131.99 17.4473C131.768 17.2539 131.155 16.9404 130.153 16.5068C129.157 16.0732 128.428 15.7129 127.965 15.4258C127.508 15.1328 127.147 14.7549 126.884 14.292C126.62 13.8291 126.488 13.2871 126.488 12.666C126.488 11.582 126.881 10.6826 127.666 9.96777C128.451 9.25293 129.588 8.89551 131.076 8.89551C132.588 8.89551 133.757 9.25 134.583 9.95898C135.415 10.668 135.872 11.6113 135.954 12.7891L133.414 12.9033C133.35 12.2881 133.127 11.8164 132.746 11.4883C132.365 11.1602 131.803 10.9961 131.059 10.9961C130.326 10.9961 129.802 11.125 129.485 11.3828C129.175 11.6406 129.02 11.9658 129.02 12.3584C129.02 12.7275 129.163 13.0322 129.45 13.2725C129.737 13.5186 130.373 13.8555 131.357 14.2832C132.84 14.9219 133.783 15.4404 134.188 15.8389C134.791 16.4248 135.093 17.1777 135.093 18.0977C135.093 19.2344 134.642 20.207 133.739 21.0156C132.843 21.8184 131.592 22.2197 129.986 22.2197C128.879 22.2197 127.918 22.0352 127.104 21.666C126.295 21.291 125.724 20.7725 125.39 20.1104C125.056 19.4482 124.9 18.6865 124.924 17.8252ZM136.569 22L139.268 9.11523H142.739C143.706 9.11523 144.324 9.12988 144.594 9.15918C145.127 9.21191 145.602 9.32031 146.018 9.48438C146.439 9.64844 146.82 9.87988 147.16 10.1787C147.506 10.4717 147.802 10.8262 148.048 11.2422C148.3 11.6582 148.493 12.1387 148.628 12.6836C148.763 13.2227 148.83 13.8145 148.83 14.459C148.83 15.8477 148.563 17.0811 148.03 18.1592C147.503 19.2314 146.838 20.084 146.035 20.7168C145.42 21.209 144.626 21.5723 143.653 21.8066C143.103 21.9355 142.256 22 141.113 22H136.569ZM139.654 19.9258H140.999C141.972 19.9258 142.675 19.8672 143.108 19.75C143.548 19.627 143.949 19.4014 144.312 19.0732C144.834 18.5986 145.273 17.9658 145.631 17.1748C145.988 16.3838 146.167 15.4521 146.167 14.3799C146.167 13.4658 146.018 12.7803 145.719 12.3232C145.426 11.8604 145.062 11.5527 144.629 11.4004C144.324 11.2949 143.782 11.2422 143.003 11.2422H141.465L139.654 19.9258ZM149.507 22L152.196 9.11523H154.851L153.708 14.5908L159.667 9.11523H163.218L157.435 14.1689L161.68 22H158.683L155.501 15.8652L152.996 18.0537L152.17 22H149.507Z" fill="black"/>
<defs>
<linearGradient id="paint0_linear_8549_11599" x1="2.00001" y1="4.63633" x2="30.08" y2="26.6637" gradientUnits="userSpaceOnUse">
<stop stop-color="#AEF431"/>
<stop offset="1" stop-color="#32F5D4"/>
</linearGradient>
<radialGradient id="paint1_radial_8549_11599" cx="0" cy="0" r="1" gradientUnits="userSpaceOnUse" gradientTransform="translate(15.7803 15.6511) scale(15.08 8.94192)">
<stop stop-color="#AEF431"/>
<stop offset="1" stop-color="#32F5D4"/>
</radialGradient>
</defs>
</svg>
